<svg width="26" height="26" viewBox="0 0 26 26" fill="none" xmlns="http://www.w3.org/2000/svg">
<path d="M14.8489 1.44444C14.8489 0.6467 14.2022 0 13.4044 0C12.6067 0 11.96 0.6467 11.96 1.44444V11.1511H1.44444C0.6467 11.1511 0 11.7978 0 12.5956C0 13.3933 0.6467 14.04 1.44444 14.04H11.96V24.5556C11.96 25.3533 12.6067 26 13.4044 26C14.2022 26 14.8489 25.3533 14.8489 24.5556V14.04H24.5556C25.3533 14.04 26 13.3933 26 12.5956C26 11.7978 25.3533 11.1511 24.5556 11.1511H14.8489V1.44444Z" fill="#FC8855"/>
</svg>
