<svg width="384" height="172" viewBox="0 0 384 172" fill="none" xmlns="http://www.w3.org/2000/svg">
<path d="M51.048 136.152C43.7093 136.152 37.992 134.616 33.896 131.544C29.8853 128.472 27.0693 124.333 25.448 119.128C23.912 113.923 23.144 108.12 23.144 101.72V65.112C23.144 58.1147 23.912 52.0133 25.448 46.808C27.0693 41.6027 29.8853 37.592 33.896 34.776C37.992 31.8747 43.7093 30.424 51.048 30.424C57.5333 30.424 62.6533 31.6187 66.408 34.008C70.248 36.3973 72.9787 39.8107 74.6 44.248C76.3067 48.6853 77.16 54.0187 77.16 60.248V68.44H63.464V61.144C63.464 57.304 63.2507 53.9333 62.824 51.032C62.4827 48.0453 61.4587 45.7413 59.752 44.12C58.0453 42.4987 55.1867 41.688 51.176 41.688C47.08 41.688 44.0933 42.584 42.216 44.376C40.3387 46.0827 39.1013 48.5573 38.504 51.8C37.992 54.9573 37.736 58.6693 37.736 62.936V104.024C37.736 109.229 38.1627 113.368 39.016 116.44C39.8693 119.427 41.2773 121.56 43.24 122.84C45.2027 124.12 47.848 124.76 51.176 124.76C55.1013 124.76 57.9173 123.907 59.624 122.2C61.3307 120.408 62.3973 117.976 62.824 114.904C63.2507 111.832 63.464 108.248 63.464 104.152V96.472H77.16V104.152C77.16 110.467 76.392 116.056 74.856 120.92C73.32 125.699 70.6747 129.453 66.92 132.184C63.1653 134.829 57.8747 136.152 51.048 136.152ZM117.435 136.152C110.438 136.152 104.848 134.787 100.667 132.056C96.4857 129.325 93.499 125.443 91.707 120.408C89.915 115.288 89.019 109.315 89.019 102.488V63.192C89.019 56.3653 89.915 50.52 91.707 45.656C93.5843 40.7067 96.571 36.952 100.667 34.392C104.848 31.7467 110.438 30.424 117.435 30.424C124.432 30.424 129.979 31.7467 134.075 34.392C138.171 37.0373 141.115 40.792 142.907 45.656C144.784 50.52 145.723 56.3653 145.723 63.192V102.616C145.723 109.357 144.784 115.245 142.907 120.28C141.115 125.315 138.171 129.24 134.075 132.056C129.979 134.787 124.432 136.152 117.435 136.152ZM117.435 124.76C121.275 124.76 124.176 123.992 126.139 122.456C128.102 120.835 129.424 118.616 130.107 115.8C130.79 112.899 131.131 109.528 131.131 105.688V60.248C131.131 56.408 130.79 53.1227 130.107 50.392C129.424 47.576 128.102 45.4427 126.139 43.992C124.176 42.456 121.275 41.688 117.435 41.688C113.595 41.688 110.651 42.456 108.603 43.992C106.64 45.4427 105.318 47.576 104.635 50.392C103.952 53.1227 103.611 56.408 103.611 60.248V105.688C103.611 109.528 103.952 112.899 104.635 115.8C105.318 118.616 106.64 120.835 108.603 122.456C110.651 123.992 113.595 124.76 117.435 124.76ZM159.683 135L161.603 31.32H175.811L194.115 115.416L212.547 31.32H226.627L228.547 135H216.899L215.747 59.736L198.211 135H190.019L172.611 59.736L171.459 135H159.683ZM244.439 135V31.32H284.631V42.072H258.903V76.376H279.767V86.616H258.903V124.632H284.887V135H244.439ZM307.956 135V42.072H290.42V31.32H339.444V42.072H322.42V135H307.956Z" fill="#3A4248" fill-opacity="0.2"/>
<path d="M3.46348 100V59.5H9.11348V95.95H19.4635V100H3.46348ZM23.2365 100V71.1H28.5865V100H23.2365ZM23.2365 66.8V61.2H28.5865V66.8H23.2365ZM41.0123 100.4C38.6456 100.4 36.7456 99.6667 35.3123 98.2C33.879 96.7 33.0623 94.7333 32.8623 92.3L37.3123 90.95C37.579 92.7833 38.029 94.1667 38.6623 95.1C39.2956 96 40.229 96.45 41.4623 96.45C42.429 96.45 43.1623 96.1833 43.6623 95.65C44.1623 95.0833 44.4123 94.3333 44.4123 93.4C44.4123 92.5667 44.229 91.8167 43.8623 91.15C43.4956 90.4833 42.8956 89.8 42.0623 89.1L37.1123 84.85C36.1123 83.9833 35.2623 83.0167 34.5623 81.95C33.8956 80.8833 33.5623 79.5 33.5623 77.8C33.5623 76.2667 33.8623 74.9833 34.4623 73.95C35.0956 72.8833 35.9623 72.0833 37.0623 71.55C38.1956 70.9833 39.5123 70.7 41.0123 70.7C43.3123 70.7 45.0623 71.45 46.2623 72.95C47.4956 74.4167 48.1956 76.2 48.3623 78.3L44.7623 79.65C44.629 78.65 44.429 77.7833 44.1623 77.05C43.8956 76.2833 43.529 75.7 43.0623 75.3C42.5956 74.8667 41.979 74.65 41.2123 74.65C40.3456 74.65 39.6456 74.95 39.1123 75.55C38.6123 76.1167 38.3623 76.8 38.3623 77.6C38.3623 78.1 38.4623 78.6 38.6623 79.1C38.8956 79.5667 39.279 80.0333 39.8123 80.5L44.9123 85.2C45.6123 85.8333 46.2623 86.5167 46.8623 87.25C47.4956 87.9833 48.0123 88.8167 48.4123 89.75C48.8123 90.6833 49.0123 91.7667 49.0123 93C49.0123 94.6333 48.679 96 48.0123 97.1C47.3456 98.2 46.4123 99.0333 45.2123 99.6C44.0123 100.133 42.6123 100.4 41.0123 100.4ZM60.7135 100.4C59.2135 100.4 57.9968 100.117 57.0635 99.55C56.1635 98.9833 55.4968 98.1833 55.0635 97.15C54.6635 96.1167 54.4635 94.9 54.4635 93.5V74.65H51.4135V71.1H54.4635V62.65H59.8135V71.1H64.4635V74.65H59.8135V93.15C59.8135 94.2833 59.9968 95.1 60.3635 95.6C60.7301 96.0667 61.4301 96.3 62.4635 96.3C62.7301 96.3 63.0301 96.2833 63.3635 96.25C63.7301 96.2167 64.0801 96.1833 64.4135 96.15V100.1C63.7468 100.2 63.1301 100.267 62.5635 100.3C61.9968 100.367 61.3801 100.4 60.7135 100.4ZM76.3943 100.4C74.1277 100.4 72.3777 99.9667 71.1443 99.1C69.911 98.2 69.0443 96.9 68.5443 95.2C68.0777 93.4667 67.8443 91.35 67.8443 88.85V82.25C67.8443 79.6833 68.0943 77.55 68.5943 75.85C69.0943 74.15 69.961 72.8667 71.1943 72C72.461 71.1333 74.1943 70.7 76.3943 70.7C78.8277 70.7 80.611 71.2 81.7443 72.2C82.911 73.2 83.6777 74.65 84.0443 76.55C84.411 78.4167 84.5943 80.6667 84.5943 83.3V85.65H73.1943V91.45C73.1943 92.6167 73.2943 93.5667 73.4943 94.3C73.7277 95.0333 74.0777 95.5833 74.5443 95.95C75.0443 96.2833 75.6777 96.45 76.4443 96.45C77.2443 96.45 77.8443 96.2667 78.2443 95.9C78.6777 95.5 78.961 94.95 79.0943 94.25C79.261 93.5167 79.3443 92.6667 79.3443 91.7V89.95H84.5443V91.05C84.5443 93.95 83.9277 96.2333 82.6943 97.9C81.461 99.5667 79.361 100.4 76.3943 100.4ZM73.1943 82.75H79.3443V80.15C79.3443 78.95 79.2777 77.95 79.1443 77.15C79.011 76.3167 78.7277 75.7 78.2943 75.3C77.8943 74.8667 77.2443 74.65 76.3443 74.65C75.4777 74.65 74.811 74.85 74.3443 75.25C73.911 75.65 73.611 76.3333 73.4443 77.3C73.2777 78.2333 73.1943 79.5333 73.1943 81.2V82.75ZM107.565 100.4C105.132 100.4 103.315 99.5167 102.115 97.75C100.915 95.95 100.315 92.9167 100.315 88.65V83.05C100.315 80.85 100.498 78.8167 100.865 76.95C101.232 75.05 101.915 73.5333 102.915 72.4C103.948 71.2667 105.448 70.7 107.415 70.7C108.382 70.7 109.265 70.9167 110.065 71.35C110.865 71.7833 111.582 72.3167 112.215 72.95V59.5H117.565V100H112.215V98.15C111.582 98.8167 110.882 99.3667 110.115 99.8C109.382 100.2 108.532 100.4 107.565 100.4ZM108.915 96.2C109.415 96.2 109.948 96.1167 110.515 95.95C111.082 95.75 111.648 95.4667 112.215 95.1V76.15C111.748 75.8167 111.232 75.5333 110.665 75.3C110.098 75.0333 109.482 74.9 108.815 74.9C107.582 74.9 106.748 75.5 106.315 76.7C105.882 77.8667 105.665 79.2833 105.665 80.95V89.1C105.665 90.4333 105.732 91.65 105.865 92.75C106.032 93.8167 106.348 94.6667 106.815 95.3C107.282 95.9 107.982 96.2 108.915 96.2ZM130.984 100.4C128.718 100.4 126.968 99.9667 125.734 99.1C124.501 98.2 123.634 96.9 123.134 95.2C122.668 93.4667 122.434 91.35 122.434 88.85V82.25C122.434 79.6833 122.684 77.55 123.184 75.85C123.684 74.15 124.551 72.8667 125.784 72C127.051 71.1333 128.784 70.7 130.984 70.7C133.418 70.7 135.201 71.2 136.334 72.2C137.501 73.2 138.268 74.65 138.634 76.55C139.001 78.4167 139.184 80.6667 139.184 83.3V85.65H127.784V91.45C127.784 92.6167 127.884 93.5667 128.084 94.3C128.318 95.0333 128.668 95.5833 129.134 95.95C129.634 96.2833 130.268 96.45 131.034 96.45C131.834 96.45 132.434 96.2667 132.834 95.9C133.268 95.5 133.551 94.95 133.684 94.25C133.851 93.5167 133.934 92.6667 133.934 91.7V89.95H139.134V91.05C139.134 93.95 138.518 96.2333 137.284 97.9C136.051 99.5667 133.951 100.4 130.984 100.4ZM127.784 82.75H133.934V80.15C133.934 78.95 133.868 77.95 133.734 77.15C133.601 76.3167 133.318 75.7 132.884 75.3C132.484 74.8667 131.834 74.65 130.934 74.65C130.068 74.65 129.401 74.85 128.934 75.25C128.501 75.65 128.201 76.3333 128.034 77.3C127.868 78.2333 127.784 79.5333 127.784 81.2V82.75ZM150.729 100.4C148.362 100.4 146.462 99.6667 145.029 98.2C143.596 96.7 142.779 94.7333 142.579 92.3L147.029 90.95C147.296 92.7833 147.746 94.1667 148.379 95.1C149.012 96 149.946 96.45 151.179 96.45C152.146 96.45 152.879 96.1833 153.379 95.65C153.879 95.0833 154.129 94.3333 154.129 93.4C154.129 92.5667 153.946 91.8167 153.579 91.15C153.212 90.4833 152.612 89.8 151.779 89.1L146.829 84.85C145.829 83.9833 144.979 83.0167 144.279 81.95C143.612 80.8833 143.279 79.5 143.279 77.8C143.279 76.2667 143.579 74.9833 144.179 73.95C144.812 72.8833 145.679 72.0833 146.779 71.55C147.912 70.9833 149.229 70.7 150.729 70.7C153.029 70.7 154.779 71.45 155.979 72.95C157.212 74.4167 157.912 76.2 158.079 78.3L154.479 79.65C154.346 78.65 154.146 77.7833 153.879 77.05C153.612 76.2833 153.246 75.7 152.779 75.3C152.312 74.8667 151.696 74.65 150.929 74.65C150.062 74.65 149.362 74.95 148.829 75.55C148.329 76.1167 148.079 76.8 148.079 77.6C148.079 78.1 148.179 78.6 148.379 79.1C148.612 79.5667 148.996 80.0333 149.529 80.5L154.629 85.2C155.329 85.8333 155.979 86.5167 156.579 87.25C157.212 87.9833 157.729 88.8167 158.129 89.75C158.529 90.6833 158.729 91.7667 158.729 93C158.729 94.6333 158.396 96 157.729 97.1C157.062 98.2 156.129 99.0333 154.929 99.6C153.729 100.133 152.329 100.4 150.729 100.4Z" fill="#3A4248"/>
<path d="M184.756 100.45C181.889 100.45 179.656 99.85 178.056 98.65C176.489 97.45 175.389 95.8333 174.756 93.8C174.156 91.7667 173.856 89.5 173.856 87V72.7C173.856 69.9667 174.156 67.5833 174.756 65.55C175.389 63.5167 176.489 61.95 178.056 60.85C179.656 59.7167 181.889 59.15 184.756 59.15C187.289 59.15 189.289 59.6167 190.756 60.55C192.256 61.4833 193.323 62.8167 193.956 64.55C194.623 66.2833 194.956 68.3667 194.956 70.8V74H189.606V71.15C189.606 69.65 189.523 68.3333 189.356 67.2C189.223 66.0333 188.823 65.1333 188.156 64.5C187.489 63.8667 186.373 63.55 184.806 63.55C183.206 63.55 182.039 63.9 181.306 64.6C180.573 65.2667 180.089 66.2333 179.856 67.5C179.656 68.7333 179.556 70.1833 179.556 71.85V87.9C179.556 89.9333 179.723 91.55 180.056 92.75C180.389 93.9167 180.939 94.75 181.706 95.25C182.473 95.75 183.506 96 184.806 96C186.339 96 187.439 95.6667 188.106 95C188.773 94.3 189.189 93.35 189.356 92.15C189.523 90.95 189.606 89.55 189.606 87.95V84.95H194.956V87.95C194.956 90.4167 194.656 92.6 194.056 94.5C193.456 96.3667 192.423 97.8333 190.956 98.9C189.489 99.9333 187.423 100.45 184.756 100.45ZM210.688 100.45C207.955 100.45 205.772 99.9167 204.138 98.85C202.505 97.7833 201.338 96.2667 200.638 94.3C199.938 92.3 199.588 89.9667 199.588 87.3V71.95C199.588 69.2833 199.938 67 200.638 65.1C201.372 63.1667 202.538 61.7 204.138 60.7C205.772 59.6667 207.955 59.15 210.688 59.15C213.422 59.15 215.588 59.6667 217.188 60.7C218.788 61.7333 219.938 63.2 220.638 65.1C221.372 67 221.738 69.2833 221.738 71.95V87.35C221.738 89.9833 221.372 92.2833 220.638 94.25C219.938 96.2167 218.788 97.75 217.188 98.85C215.588 99.9167 213.422 100.45 210.688 100.45ZM210.688 96C212.188 96 213.322 95.7 214.088 95.1C214.855 94.4667 215.372 93.6 215.638 92.5C215.905 91.3667 216.038 90.05 216.038 88.55V70.8C216.038 69.3 215.905 68.0167 215.638 66.95C215.372 65.85 214.855 65.0167 214.088 64.45C213.322 63.85 212.188 63.55 210.688 63.55C209.188 63.55 208.038 63.85 207.238 64.45C206.472 65.0167 205.955 65.85 205.688 66.95C205.422 68.0167 205.288 69.3 205.288 70.8V88.55C205.288 90.05 205.422 91.3667 205.688 92.5C205.955 93.6 206.472 94.4667 207.238 95.1C208.038 95.7 209.188 96 210.688 96ZM227.192 100L227.942 59.5H233.492L240.642 92.35L247.842 59.5H253.342L254.092 100H249.542L249.092 70.6L242.242 100H239.042L232.242 70.6L231.792 100H227.192ZM260.299 100V59.5H275.999V63.7H265.949V77.1H274.099V81.1H265.949V95.95H276.099V100H260.299ZM285.111 100V63.7H278.261V59.5H297.411V63.7H290.761V100H285.111Z" fill="#FC8855"/>
</svg>
